<svg xmlns="http://www.w3.org/2000/svg" width="235.578" height="33.753" viewBox="0 0 235.578 33.753">
  <g id="LUXOCHAIN_LOGO_GIUSTO_Tavola_disegno_1_copia_10" data-name="LUXOCHAIN LOGO GIUSTO_Tavola disegno 1 copia 10" transform="translate(-29.22 -24.78)">
    <path id="Tracciato_223" data-name="Tracciato 223" d="M73.395,29.085l-3.3,3.3-3.3-3.3,3.3-3.3,3.3,3.3" transform="translate(-18.26 -0.486)" fill="#e1c17c"/>
    <path id="Tracciato_224" data-name="Tracciato 224" d="M113.371,46.5l-1.321-1.321,1.321-1.321,1.321,1.321L113.371,46.5" transform="translate(-40.257 -9.273)" fill="#e1c17c"/>
    <path id="Tracciato_225" data-name="Tracciato 225" d="M106.269,46.533l-1.979-1.979,1.979-1.984,1.984,1.984-1.984,1.979" transform="translate(-36.485 -8.646)" fill="#e1c17c"/>
    <path id="Tracciato_226" data-name="Tracciato 226" d="M96.682,46.574,94.04,43.932l2.642-2.642,2.642,2.642-2.642,2.642" transform="translate(-31.504 -8.024)" fill="#e1c17c"/>
    <path id="Tracciato_227" data-name="Tracciato 227" d="M99.011,60.672,97.69,59.351l1.321-1.321,1.321,1.321-1.321,1.321" transform="translate(-33.278 -16.16)" fill="#e1c17c"/>
    <path id="Tracciato_228" data-name="Tracciato 228" d="M91.9,60.7,89.92,58.724,91.9,56.74l1.979,1.984L91.9,60.7" transform="translate(-29.501 -15.533)" fill="#e1c17c"/>
    <path id="Tracciato_229" data-name="Tracciato 229" d="M87.481,72.2,86.16,70.881l1.321-1.321L88.8,70.881,87.481,72.2" transform="translate(-27.674 -21.764)" fill="#e1c17c"/>
    <path id="Tracciato_230" data-name="Tracciato 230" d="M78.411,81.082,77.09,79.761l1.321-1.321,1.321,1.321-1.321,1.321" transform="translate(-23.266 -26.08)" fill="#e1c17c"/>
    <path id="Tracciato_231" data-name="Tracciato 231" d="M80.379,72.233,78.4,70.254l1.979-1.984,1.984,1.984-1.984,1.979" transform="translate(-23.902 -21.137)" fill="#e1c17c"/>
    <path id="Tracciato_232" data-name="Tracciato 232" d="M82.322,60.744,79.68,58.1l2.642-2.642L84.964,58.1l-2.642,2.642" transform="translate(-24.525 -14.911)" fill="#e1c17c"/>
    <path id="Tracciato_233" data-name="Tracciato 233" d="M44.971,60.672l1.321-1.321L44.971,58.03,43.65,59.351l1.321,1.321" transform="translate(-7.013 -16.16)" fill="#e1c17c"/>
    <path id="Tracciato_234" data-name="Tracciato 234" d="M50.829,60.7l1.979-1.979L50.829,56.74,48.85,58.724,50.829,60.7" transform="translate(-9.541 -15.533)" fill="#e1c17c"/>
    <path id="Tracciato_235" data-name="Tracciato 235" d="M56.5,72.2l1.321-1.321L56.5,69.56,55.18,70.881,56.5,72.2" transform="translate(-12.617 -21.764)" fill="#e1c17c"/>
    <path id="Tracciato_236" data-name="Tracciato 236" d="M65.571,81.082l1.321-1.321L65.571,78.44,64.25,79.761l1.321,1.321" transform="translate(-17.025 -26.08)" fill="#e1c17c"/>
    <path id="Tracciato_237" data-name="Tracciato 237" d="M62.354,72.233l1.979-1.979L62.354,68.27,60.37,70.254l1.984,1.979" transform="translate(-15.14 -21.137)" fill="#e1c17c"/>
    <path id="Tracciato_238" data-name="Tracciato 238" d="M59.162,60.744,61.8,58.1,59.162,55.46,56.52,58.1l2.642,2.642" transform="translate(-13.268 -14.911)" fill="#e1c17c"/>
    <path id="Tracciato_239" data-name="Tracciato 239" d="M84.31,46.6l-3.3-3.3,3.3-3.3,3.3,3.3-3.3,3.3" transform="translate(-25.171 -7.397)" fill="#e1c17c"/>
    <path id="Tracciato_240" data-name="Tracciato 240" d="M73.426,42.633,69.463,46.6,65.5,42.633l3.963-3.963,3.963,3.963" transform="translate(-17.633 -6.751)" fill="#e1c17c"/>
    <path id="Tracciato_241" data-name="Tracciato 241" d="M30.541,43.77l1.321,1.321-1.321,1.321L29.22,45.091l1.321-1.321" transform="translate(0 -9.23)" fill="#e1c17c"/>
    <path id="Tracciato_242" data-name="Tracciato 242" d="M36.4,42.49l1.984,1.979L36.4,46.453,34.42,44.469,36.4,42.49" transform="translate(-2.527 -8.607)" fill="#e1c17c"/>
    <path id="Tracciato_243" data-name="Tracciato 243" d="M44.732,41.2l2.642,2.642-2.642,2.642L42.09,43.842,44.732,41.2" transform="translate(-6.255 -7.98)" fill="#e1c17c"/>
    <path id="Tracciato_244" data-name="Tracciato 244" d="M44.9,29.6l1.321,1.321L44.9,32.242,43.58,30.921,44.9,29.6" transform="translate(-6.979 -2.343)" fill="#e1c17c"/>
    <path id="Tracciato_245" data-name="Tracciato 245" d="M50.759,28.32,52.743,30.3l-1.984,1.984L48.78,30.3l1.979-1.979" transform="translate(-9.507 -1.721)" fill="#e1c17c"/>
    <path id="Tracciato_246" data-name="Tracciato 246" d="M59.092,27.03l2.642,2.642-2.642,2.642L56.45,29.672l2.642-2.642" transform="translate(-13.234 -1.094)" fill="#e1c17c"/>
    <path id="Tracciato_247" data-name="Tracciato 247" d="M55.86,39.92l3.3,3.3-3.3,3.3-3.3-3.3,3.3-3.3" transform="translate(-11.344 -7.358)" fill="#e1c17c"/>
    <path id="Tracciato_248" data-name="Tracciato 248" d="M98.941,29.79,97.62,31.111l1.321,1.321,1.321-1.321L98.941,29.79" transform="translate(-33.244 -2.435)" fill="#e1c17c"/>
    <path id="Tracciato_249" data-name="Tracciato 249" d="M91.839,28.51,89.86,30.489l1.979,1.979,1.984-1.979L91.839,28.51" transform="translate(-29.472 -1.813)" fill="#e1c17c"/>
    <path id="Tracciato_250" data-name="Tracciato 250" d="M82.262,27.22,79.62,29.862,82.262,32.5,84.9,29.862,82.262,27.22" transform="translate(-24.495 -1.186)" fill="#e1c17c"/>
    <path id="Tracciato_251" data-name="Tracciato 251" d="M73.395,57.43l-3.3,3.3-3.3-3.3,3.3-3.3,3.3,3.3" transform="translate(-18.26 -14.265)" fill="#e1c17c"/>
    <path id="Tracciato_252" data-name="Tracciato 252" d="M73.354,69.622l-2.642,2.642L68.07,69.622l2.642-2.642,2.642,2.642" transform="translate(-18.882 -20.51)" fill="#e1c17c"/>
    <path id="Tracciato_253" data-name="Tracciato 253" d="M73.323,79.2l-1.984,1.984L69.36,79.2l1.979-1.979L73.323,79.2" transform="translate(-19.509 -25.487)" fill="#e1c17c"/>
    <path id="Tracciato_254" data-name="Tracciato 254" d="M73.282,86.306l-1.321,1.321L70.64,86.306l1.321-1.316,1.321,1.316" transform="translate(-20.131 -29.263)" fill="#e1c17c"/>
    <path id="Tracciato_255" data-name="Tracciato 255" d="M142.774,40.834v3.022h-9.7V25.78h3.017V40.834h6.687" transform="translate(-50.473 -0.486)" fill="#fff"/>
    <path id="Tracciato_256" data-name="Tracciato 256" d="M168.28,38.074V25.78H171.3V38.069c.154,2.092,1.835,3.022,3.742,3.022s3.767-1.007,3.767-3.022V25.78h3.022V38.069c0,3.85-2.945,6.044-6.79,6.044s-6.764-2.323-6.764-6.044" transform="translate(-67.586 -0.486)" fill="#fff"/>
    <path id="Tracciato_257" data-name="Tracciato 257" d="M215.976,34.821,209.52,25.78h3.69l4.621,6.456,4.6-6.456h3.69l-6.456,9.041,6.456,9.036h-3.69l-4.6-6.456-4.621,6.456h-3.69l6.456-9.036" transform="translate(-87.629 -0.486)" fill="#fff"/>
    <path id="Tracciato_258" data-name="Tracciato 258" d="M264.059,43.869c-11.929,0-11.9-18.539,0-18.539s11.878,18.539,0,18.539m0-15.594c-7.8,0-7.823,12.68,0,12.68S271.882,28.275,264.059,28.275Z" transform="translate(-109.792 -0.267)" fill="#fff"/>
    <path id="Tracciato_259" data-name="Tracciato 259" d="M318.732,39.091l2.118,2.143a8.991,8.991,0,0,1-6.379,2.632,8.864,8.864,0,0,1-9.061-9.3c0-5.685,3.767-9.3,9.061-9.3a8.907,8.907,0,0,1,6.379,2.657l-2.118,2.118a6.031,6.031,0,0,0-4.261-1.758c-3.716,0-5.993,2.632-5.993,6.276a5.88,5.88,0,0,0,5.993,6.276,6.031,6.031,0,0,0,4.261-1.758" transform="translate(-134.234 -0.238)" fill="#fff"/>
    <path id="Tracciato_260" data-name="Tracciato 260" d="M365.179,25.78V43.857h-3.022v-7.54h-7.514v7.54H351.62V25.78h3.022v7.489h7.514V25.78h3.022" transform="translate(-156.693 -0.486)" fill="#fff"/>
    <path id="Tracciato_261" data-name="Tracciato 261" d="M402.442,41.279H396.09l-.776,2.092H392.06l7.206-18.591L406.5,43.371h-3.254l-.8-2.092m-5.371-2.606h4.389L399.271,32.4Z" transform="translate(-176.347)" fill="#fff"/>
    <rect id="Rettangolo_151" data-name="Rettangolo 151" width="3.022" height="18.077" transform="translate(237.428 25.294)" fill="#fff"/>
    <path id="Tracciato_262" data-name="Tracciato 262" d="M473.325,43.857h-3.048L461.292,31v12.86H458.27V25.78h3.048l9.01,12.86V25.78h3V43.857" transform="translate(-208.527 -0.486)" fill="#fff"/>
    <path id="Tracciato_263" data-name="Tracciato 263" d="M133.065,78.06h2.58a2.26,2.26,0,0,1,1.624.555,1.362,1.362,0,0,1,.4.982v.021a1.55,1.55,0,0,1-1.064,1.485c.75.2,1.413.627,1.413,1.491v.015c0,1.043-.894,1.706-2.241,1.706H133.06V78.06m4.138,1.583c0-.689-.565-1.151-1.562-1.151h-2.107v2.457h2.066c.941,0,1.609-.457,1.609-1.285v-.015Zm-1.552,1.732h-2.118v2.513H135.8c1.074,0,1.753-.493,1.753-1.28v-.015c0-.771-.668-1.213-1.9-1.213Z" transform="translate(-50.468 -25.895)" fill="#fff"/>
    <path id="Tracciato_264" data-name="Tracciato 264" d="M149.81,78.06h.463v5.829h3.675v.427H149.81V78.06" transform="translate(-58.609 -25.895)" fill="#fff"/>
    <path id="Tracciato_265" data-name="Tracciato 265" d="M163.53,81.108v-.015a3.147,3.147,0,1,1,6.291-.015V81.1a3.147,3.147,0,1,1-6.291.015m5.808,0V81.1a2.708,2.708,0,0,0-2.673-2.817,2.673,2.673,0,0,0-2.652,2.8V81.1a2.7,2.7,0,0,0,2.673,2.811A2.673,2.673,0,0,0,169.338,81.113Z" transform="translate(-65.277 -25.798)" fill="#fff"/>
    <path id="Tracciato_266" data-name="Tracciato 266" d="M182.5,81.108v-.015a3.142,3.142,0,0,1,3.125-3.233,3.3,3.3,0,0,1,2.431,1l-.329.339a2.881,2.881,0,0,0-2.107-.92,2.674,2.674,0,0,0-2.637,2.8V81.1a2.693,2.693,0,0,0,2.647,2.811,2.868,2.868,0,0,0,2.154-.971l.314.3a3.3,3.3,0,0,1-2.483,1.09,3.11,3.11,0,0,1-3.11-3.218" transform="translate(-74.497 -25.798)" fill="#fff"/>
    <path id="Tracciato_267" data-name="Tracciato 267" d="M200.06,78.06h.463v4.112l3.988-4.112h.632l-2.734,2.765,2.853,3.49h-.612l-2.57-3.161-1.557,1.573v1.588h-.463V78.06" transform="translate(-83.032 -25.895)" fill="#fff"/>
    <path id="Tracciato_268" data-name="Tracciato 268" d="M215.27,81.108v-.015a3.143,3.143,0,0,1,3.13-3.233,3.3,3.3,0,0,1,2.431,1l-.329.339a2.881,2.881,0,0,0-2.107-.92,2.674,2.674,0,0,0-2.637,2.8V81.1a2.693,2.693,0,0,0,2.647,2.811,2.876,2.876,0,0,0,2.154-.971l.314.3a3.3,3.3,0,0,1-2.483,1.09,3.11,3.11,0,0,1-3.11-3.218" transform="translate(-90.424 -25.798)" fill="#fff"/>
    <path id="Tracciato_269" data-name="Tracciato 269" d="M232.83,78.06h.468v2.9h4v-2.9h.463v6.255H237.3v-2.93h-4v2.93h-.468V78.06" transform="translate(-98.958 -25.895)" fill="#fff"/>
    <path id="Tracciato_270" data-name="Tracciato 270" d="M252.1,77.98h.447l2.914,6.3h-.509l-.8-1.753h-3.69l-.8,1.753h-.483l2.914-6.3m1.861,4.127-1.645-3.618-1.655,3.618Z" transform="translate(-106.91 -25.856)" fill="#fff"/>
    <rect id="Rettangolo_152" data-name="Rettangolo 152" width="0.463" height="6.255" transform="translate(152.097 52.165)" fill="#fff"/>
    <path id="Tracciato_271" data-name="Tracciato 271" d="M277.12,78.06h.437l4.317,5.443V78.06h.447v6.255h-.349l-4.4-5.556v5.556h-.447V78.06" transform="translate(-120.484 -25.895)" fill="#fff"/>
    <path id="Tracciato_272" data-name="Tracciato 272" d="M304.45,78.06h.437l2.513,3.7,2.508-3.7h.442v6.255h-.468V78.882l-2.472,3.6h-.036l-2.477-3.6v5.433h-.447V78.06" transform="translate(-133.767 -25.895)" fill="#fff"/>
    <path id="Tracciato_273" data-name="Tracciato 273" d="M323.73,78.06h4.451v.432H324.2v2.457h3.582v.427H324.2v2.513h4.03v.427h-4.5V78.06" transform="translate(-143.138 -25.895)" fill="#fff"/>
    <path id="Tracciato_274" data-name="Tracciato 274" d="M339.57,78.06h4.451v.432h-3.983v2.457h3.582v.427h-3.582v2.513h4.03v.427h-4.5V78.06" transform="translate(-150.836 -25.895)" fill="#fff"/>
    <path id="Tracciato_275" data-name="Tracciato 275" d="M356.729,78.492H354.55V78.06h4.821v.432h-2.179v5.823h-.463V78.492" transform="translate(-158.117 -25.895)" fill="#fff"/>
    <path id="Tracciato_276" data-name="Tracciato 276" d="M369.83,83.328l.3-.35a3.044,3.044,0,0,0,2.241.93c.92,0,1.583-.529,1.583-1.244v-.015c0-.663-.349-1.049-1.768-1.331-1.5-.3-2.107-.812-2.107-1.758v-.015a1.809,1.809,0,0,1,2.01-1.645,3.117,3.117,0,0,1,2.143.761l-.293.365a2.69,2.69,0,0,0-1.866-.7c-.92,0-1.526.529-1.526,1.177v.021c0,.663.339,1.064,1.825,1.367,1.449.293,2.056.812,2.056,1.722v.021a1.839,1.839,0,0,1-2.071,1.706,3.542,3.542,0,0,1-2.518-1" transform="translate(-165.543 -25.817)" fill="#fff"/>
    <path id="Tracciato_277" data-name="Tracciato 277" d="M395.34,78.06h.463v5.829h3.67v.427H395.34V78.06" transform="translate(-177.941 -25.895)" fill="#fff"/>
    <path id="Tracciato_278" data-name="Tracciato 278" d="M409.745,81.714V78.06h.463v3.608a2.039,2.039,0,0,0,2.118,2.323c1.321,0,2.082-.766,2.082-2.277V78.06h.463v3.6a2.57,2.57,0,1,1-5.13.051" transform="translate(-184.94 -25.895)" fill="#fff"/>
    <path id="Tracciato_279" data-name="Tracciato 279" d="M431.7,78.06,429.3,81.128l2.493,3.187h-.555l-2.226-2.883-2.215,2.883h-.545l2.488-3.187-2.4-3.068h.55l2.138,2.765,2.123-2.765h.55" transform="translate(-192.964 -25.895)" fill="#fff"/>
    <path id="Tracciato_280" data-name="Tracciato 280" d="M443.545,81.714V78.06h.463v3.608a2.039,2.039,0,0,0,2.118,2.323c1.321,0,2.082-.766,2.082-2.277V78.06h.463v3.6a2.57,2.57,0,1,1-5.13.051" transform="translate(-201.367 -25.895)" fill="#fff"/>
    <path id="Tracciato_281" data-name="Tracciato 281" d="M461.15,78.06h2.626a2.453,2.453,0,0,1,1.758.617,1.653,1.653,0,0,1,.473,1.162v.015c0,1.043-.776,1.645-1.83,1.789l2.066,2.673h-.591l-1.994-2.59h-2.046v2.59h-.463V78.06m2.575,3.243c1.043,0,1.825-.529,1.825-1.429v-.015c0-.838-.663-1.367-1.794-1.367h-2.133v2.817h2.107Z" transform="translate(-209.926 -25.895)" fill="#fff"/>
    <path id="Tracciato_282" data-name="Tracciato 282" d="M478.9,81.843,476.22,78.06h.581l2.344,3.361,2.349-3.361h.555l-2.683,3.773v2.483H478.9V81.843" transform="translate(-217.251 -25.895)" fill="#fff"/>
  </g>
</svg>
